<svg width="49" height="48" viewBox="0 0 49 48" fill="none" xmlns="http://www.w3.org/2000/svg">
<g id="draw">
<mask id="mask0_3_130" style="mask-type:alpha" maskUnits="userSpaceOnUse" x="0" y="0" width="49" height="48">
<rect id="Bounding box" x="0.857178" width="48" height="48" fill="#D9D9D9"/>
</mask>
<g mask="url(#mask0_3_130)">
<path id="draw_2" d="M9.85718 41V35.7925L37.8497 7.781C38.1263 7.504 38.4115 7.30467 38.7052 7.183C38.9988 7.061 39.3047 7 39.6227 7C39.92 7 40.2187 7.061 40.5187 7.183C40.8187 7.30467 41.1007 7.504 41.3647 7.781L43.0762 9.4925C43.3532 9.73583 43.5525 10.0043 43.6742 10.298C43.7962 10.5917 43.8572 10.9038 43.8572 11.2345C43.8572 11.5322 43.7962 11.8328 43.6742 12.1365C43.5525 12.4405 43.3532 12.7308 43.0762 13.0075L15.0647 41H9.85718ZM12.1267 38.7305H14.1532L36.4727 16.4115L35.4687 15.3885L34.4457 14.3845L12.1267 36.704V38.7305ZM35.4687 15.3885L34.4457 14.3845L36.4727 16.4115L35.4687 15.3885ZM29.1267 41C31.5597 41 33.7512 40.4365 35.7012 39.3095C37.6512 38.1825 38.6262 36.5793 38.6262 34.5C38.6262 33.2307 38.1442 32.0633 37.1802 30.998C36.2162 29.9327 34.7227 29.0962 32.6997 28.4885L30.9072 30.3C32.5868 30.7257 33.915 31.3212 34.8917 32.0865C35.8687 32.8518 36.3572 33.6563 36.3572 34.5C36.3572 35.6693 35.6597 36.6668 34.2647 37.4925C32.87 38.3178 31.1573 38.7305 29.1267 38.7305C28.8163 38.7305 28.5497 38.837 28.3267 39.05C28.1033 39.2627 27.9917 39.5345 27.9917 39.8655C27.9917 40.1755 28.1033 40.4422 28.3267 40.6655C28.5497 40.8885 28.8163 41 29.1267 41ZM13.1267 27.319L14.9302 25.496C13.3098 25.05 12.1042 24.5757 11.3132 24.073C10.5222 23.5707 10.1267 23.0463 10.1267 22.5C10.1267 21.8897 10.5042 21.3108 11.2592 20.7635C12.0142 20.2162 13.502 19.513 15.7227 18.654C18.374 17.6333 20.165 16.6705 21.0957 15.7655C22.0263 14.8602 22.4917 13.782 22.4917 12.531C22.4917 10.8693 21.8372 9.53217 20.5282 8.5195C19.2192 7.5065 17.4955 7 15.3572 7C14.0468 7 12.8378 7.22883 11.7302 7.6865C10.6225 8.14417 9.80468 8.7205 9.27668 9.4155C9.08668 9.6515 8.99684 9.92133 9.00718 10.225C9.01751 10.529 9.16118 10.7822 9.43818 10.9845C9.68151 11.1745 9.96034 11.2508 10.2747 11.2135C10.5887 11.1762 10.847 11.0563 11.0497 10.854C11.5753 10.3283 12.1932 9.93283 12.9032 9.6675C13.6135 9.40217 14.4315 9.2695 15.3572 9.2695C16.9545 9.2695 18.1648 9.58867 18.9882 10.227C19.8112 10.8653 20.2227 11.6333 20.2227 12.531C20.2227 13.2743 19.8772 13.9217 19.1862 14.473C18.4952 15.0243 17.0368 15.7257 14.8112 16.577C11.8958 17.6847 10.008 18.6763 9.14768 19.552C8.28734 20.4277 7.85718 21.4103 7.85718 22.5C7.85718 23.4383 8.26934 24.353 9.09368 25.244C9.91801 26.1353 11.2623 26.827 13.1267 27.319Z" fill="#1C1B1F"/>
</g>
</g>
</svg>
