<svg width="25" height="25" viewBox="0 0 25 25" fill="none" xmlns="http://www.w3.org/2000/svg">
<g id="photo">
<mask id="mask0_6_76" style="mask-type:alpha" maskUnits="userSpaceOnUse" x="0" y="0" width="25" height="25">
<rect id="Bounding box" x="0.333252" y="0.5" width="24" height="24" fill="#D9D9D9"/>
</mask>
<g mask="url(#mask0_6_76)">
<path id="photo_2" d="M5.641 21C5.13584 21 4.70825 20.825 4.35825 20.475C4.00825 20.125 3.83325 19.6974 3.83325 19.1923V5.80775C3.83325 5.30258 4.00825 4.875 4.35825 4.525C4.70825 4.175 5.13584 4 5.641 4H19.0255C19.5307 4 19.9583 4.175 20.3083 4.525C20.6583 4.875 20.8333 5.30258 20.8333 5.80775V19.1923C20.8333 19.6974 20.6583 20.125 20.3083 20.475C19.9583 20.825 19.5307 21 19.0255 21H5.641ZM5.641 19.5H19.0255C19.1025 19.5 19.173 19.4679 19.237 19.4038C19.3012 19.3398 19.3333 19.2692 19.3333 19.1923V5.80775C19.3333 5.73075 19.3012 5.66025 19.237 5.59625C19.173 5.53208 19.1025 5.5 19.0255 5.5H5.641C5.564 5.5 5.4935 5.53208 5.4295 5.59625C5.36534 5.66025 5.33325 5.73075 5.33325 5.80775V19.1923C5.33325 19.2692 5.36534 19.3398 5.4295 19.4038C5.4935 19.4679 5.564 19.5 5.641 19.5ZM7.08325 17.25H17.66L14.3718 12.8655L11.564 16.5192L9.564 13.9615L7.08325 17.25Z" fill="#1C1B1F"/>
</g>
</g>
</svg>
